<?xml version="1.0" encoding="utf-8"?>
<!-- Generator: Adobe Illustrator 25.4.1, SVG Export Plug-In . SVG Version: 6.00 Build 0)  -->
<svg version="1.1" id="图层_1" xmlns="http://www.w3.org/2000/svg" xmlns:xlink="http://www.w3.org/1999/xlink" x="0px" y="0px"
	 viewBox="0 0 62 96.7" style="enable-background:new 0 0 62 96.7;" xml:space="preserve">
<style type="text/css">
	.st0{fill:#A38138;}
	.st1{fill:#0B396D;}
</style>
<g>
	<path class="st0" d="M44.39,19.79C44.84,19.22,45,18.2,45,18.2H17.59c0,0,0.34,1.13,0.62,1.59C18.21,19.79,44.39,19.79,44.39,19.79
		z"/>
	<path class="st0" d="M42.79,22.12c0.51-0.45,1.03-1.36,1.03-1.36h-25.1c0,0,0.28,0.68,0.91,1.36H42.79z"/>
	<path class="st0" d="M40.81,24.22c0.62-0.34,1.13-1.02,1.13-1.02H20.48c0,0,0.51,0.57,1.02,1.02H40.81z"/>
	<path class="st0" d="M38.31,26.21c0.62-0.23,1.31-0.8,1.31-0.8H22.87c0,0,0,0.12,1.19,0.8H38.31z"/>
	<path class="st0" d="M25.99,27.45c0,0,1.76,1.03,5.23,1.03c3.47,0,5.67-1.03,5.67-1.03H25.99z"/>
	<path class="st1" d="M25.7,29.78c0,0,2.1,0.11,3.34,1.08c1.2,1.03,2.11,2.73,2.11,2.73s0.74-1.64,1.94-2.49
		c1.19-0.92,3.12-1.31,3.12-1.31h21.63l4.26,6.3H42.68c0,0-1.36,0.06-3.4,1.26c-1.08,0.62-1.88,1.7-1.88,1.7s-0.16,0.51-0.39,0.79
		c-0.23,0.29-0.4,0.52-0.68,0.63c-0.29,0.12-0.23,0.06-0.23,0.06H25.99c0,0-0.41-0.16-0.62-0.51c-0.23-0.34-0.06-0.22-0.28-0.5
		c-0.17-0.28-0.57-1.03-2.1-2.05c-1.59-1.03-3.12-1.14-3.12-1.14H0.1l4.3-6.53H25.7z"/>
	<path class="st1" d="M10.42,38.7v32.25c0,0,0.11,2.85,2.5,6.7c2.38,3.86,5.84,5.62,5.84,5.62l2.73-4.26c0,0-2.38-1.43-4.2-4.15
		c-1.75-2.72-1.75-5.05-1.75-5.05V38.7H10.42z"/>
	<path class="st1" d="M46.99,38.58v31.11c0,0-0.4,3.13-1.87,5.34c-1.48,2.27-3.92,4.09-3.92,4.09l2.62,4.2c0,0,3.97-2.89,5.9-5.96
		c1.94-3.06,2.4-7.67,2.4-7.67V38.58H46.99z"/>
	<path class="st1" d="M2.32,38.7v32.37c0,0,0.34,5,3.45,10.22c3.13,5.22,8.8,8.85,8.8,8.85l2.67-4.25c0,0-3.64-1.93-6.53-6.37
		c-2.96-4.48-3.12-8.57-3.12-8.57V38.7H2.32z"/>
	<path class="st0" d="M25.7,42.1v34.18c0,0-0.13,0.12-0.17,0.62c-0.06,0.52-0.4,0.86-0.4,0.86l-11.41,18.9h34.98L37.29,77.36
		l-0.34-0.86l-0.12-0.9V42.16h-4.26v34.7c0,0,0,0.5,0.17,0.9c0.11,0.4,0.34,1.02,0.34,1.02l7.03,11.58H22.3l6.92-11.52
		c0,0,0.23-0.4,0.4-0.96c0.12-0.51,0.17-1.01,0.17-1.01V42.1H25.7z"/>
	<path class="st1" d="M54.89,38.58v31.8c0,0-0.05,4.09-3.06,8.8c-3.01,4.72-6.47,6.7-6.47,6.7l2.56,4.31c0,0,5.22-3.29,8.52-8.52
		c3.24-5.23,3.63-11.3,3.63-11.3v-31.8H54.89z"/>
	<path class="st0" d="M17.41,17.29c0,0-1.75-9.59,5.28-14.37c0,0,3.18-2.95,8.34-2.95c5.52,0,8.69,2.89,8.69,2.89
		c7.67,5.62,5.4,14.42,5.4,14.42H17.41z"/>
</g>
</svg>
