<?xml version="1.0" encoding="UTF-8"?><svg id="b" xmlns="http://www.w3.org/2000/svg" viewBox="0 0 1006.8488 1006.8398"><g id="c"><path d="M440.0711,869.758c-3.4369,1.5541-5.1802,5.1902-8.3281,7.2722-2.1618-1.6736-4.2837-3.1679-6.2462-4.8514-2.0322-1.7633-2.1318-2.879.0698-4.3733,3.128-2.0721,6.525-3.7357,9.8423-5.5488.5579-.3088,1.2154-.4781,1.833-.6475,5.758-1.4943,7.4117-5.8676,7.9596-11.1275.8567-8.1787,2.9288-16.1084,6.3656-23.5897,1.8729-4.0545,5.1005-6.5351,9.8723-6.3259,2.7395.1395,3.1878.548,3.2476,3.2078.0299.777.0996,1.564-.02,2.341-.508,3.3572.6276,5.9174,2.9189,8.4776,2.3908,2.6798,4.2338,5.8975,6.0269,9.0653,2.102,3.666,1.9625,5.8576-1.1755,8.7366-3.0383,2.7993-6.3258,5.6783-10.0316,7.322-4.8016,2.112-5.9971,6.1166-6.6745,10.221-.8966,5.4989-.8866,11.1374-1.2153,16.7061-.0598.8667.1693,1.7533.259,2.4805.4582.2291.6873.4483.9065.4283,6.0469-.6276,9.5634,3.1779,13.0103,7.2623,2.7694,3.2774,5.5288,6.5449,8.3879,9.7328,2.6299,2.9487,4.7717,6.1465,6.017,9.9519,1.2253,3.7457-.2092,6.6844-2.6001,9.2546-1.7433,1.9027-2.8889,1.823-5.1702.4383-3.0882-1.9326-6.2661-3.7257-9.2546-5.7878-1.4445-1.0062-2.6001-2.4507-3.7756-3.7955-1.8629-2.1618-3.4867-4.5227-5.4691-6.545-.6774-.6874-2.3111-1.1356-3.1081-.7969-.7571.3387-1.4245,1.8529-1.4046,2.869.0398,4.4928-.4383,8.9956,1.3548,13.4585,1.3847,3.4269,2.3211,7.1826,1.9027,11.0677-.5578,5.24-2.7893,6.4454-7.7304,4.6522-3.0384-1.0958-5.2499-3.2675-6.0568-6.6645-.4882-2.0023-1.0959-4.0645-2.1219-5.8277-2.371-4.1342-4.4132-8.2983-3.8354-13.0601-1.8031-1.4146-3.5165-1.1755-5.0407-.4184-3.0085,1.5242-5.9771,3.148-8.8063,4.961-2.2614,1.4445-4.4729,1.9227-7.2025,1.0062-.8766-6.7542-1.1954-13.598-3.925-19.9039-4.3234,1.1656-5.21,2.1617-5.1403,6.1166.1893,9.5037.4682,18.9874.6774,28.4712.0199,1.0161-.0897,2.0322-.1494,3.118-2.6499.5479-4.2637-.8168-5.5787-2.4008-2.2115-2.6299-3.7756-5.6085-3.7556-9.1849.0498-4.7119.1394-9.404.1494-14.106.0199-.8169-.2192-1.6437-.3985-2.9488-3.3372,1.853-6.3955,3.2377-8.5473,5.9373-2.0721,2.5901-4.8116,3.8354-8.0193,4.3932-2.5204.4085-4.3235-.5977-5.6584-2.5901-2.6997-3.9748-3.1978-8.4676-2.8989-13.0899.0498-.5977.3985-1.3847.8567-1.6736,6.2461-3.9449,9.3244-10.4201,13.2493-16.208,4.4829-6.5649,8.916-13.1497,13.2494-19.7943,1.2651-1.9625,3.3273-3.8055,2.2315-7.1726-1.6338.8368-3.0584,1.5541-4.4729,2.2813-1.5143.787-3.0683,1.4843-4.4929,2.3709-1.6337,1.056-3.2177,2.2315-4.692,3.4966-2.8392,2.3809-5.8576,2.879-8.886.797-2.0223-1.3747-3.9948-3.0384-5.3994-4.9909-2.2115-3.1181-.7372-5.3595,3.0185-5.6883,3.1878-.2789,6.3656-.9762,9.4638-1.7931,4.9012-1.2951,9.7029-2.9587,14.6141-4.2438,2.4606-.6276,3.6759-1.9426,4.2936-4.3633,2.3012-8.8561,5.3595-17.4333,9.6829-25.4925,2.7296-5.0607,5.8975-9.8424,10.4501-13.5283,2.4506-1.9824,2.8989-2.0521,5.2599.0598,4.8215,4.3135,7.2821,9.8722,7.6706,16.198.807,13.9069-7.571,23.4404-20.0035,27.983-1.574.5878-3.2177,1.1058-4.6422,1.9924-3.656,2.3012-4.9212,5.9672-5.0507,10.0516-.1893,5.479-.0897,10.968-.269,16.4371-.0896,2.8392-.5877,5.6484-.787,8.4876-.1295,1.7732-.0099,3.5763-.0099,5.3694,2.8491.3587,4.8016-.8168,6.3656-2.3111,1.7234-1.6437,3.3771-2.5901,5.8576-2.4008,1.1058.0697,2.5602-.6077,3.3871-1.4246,5.7081-5.6982,11.3366-11.516,16.9751-17.3138.4881-.528.8168-1.2452,1.2054-1.8828-.1893-.1992-.3886-.3985-.5878-.6077M412.5563,849.4756c2.3411-1.7732,4.0346-2.889,5.5687-4.2239,4.9611-4.2836,9.0853-9.2446,11.7053-15.3313,1.6337-3.7656,1.1356-7.3419-1.5242-10.5298-1.3648-1.6536-2.361-1.7433-3.8752-.249-1.0261.9763-1.9625,2.0721-2.8092,3.2177-5.1304,7.063-7.2523,15.3911-9.6631,23.5798-.2192.7272.259,1.6537.5977,3.5365M399.8748,891.6742c-3.4767,1.9725-6.5549,7.1726-6.2162,10.3704,4.0744-2.1817,6.0967-5.3795,6.2162-10.3704" fill="#144399" fill-rule="evenodd" stroke-width="0"/><path d="M761.2619,729.7893c-.9066-.0598-1.8231-.2292-2.7097-.1793-3.2177.2191-5.1901,2.5104-4.8315,5.7579.4881,4.2737-.518,8.0094-3.4966,11.1673-5.9074,6.2462-8.0194,14.1061-9.5535,22.225-.7073,3.7258-1.5341,7.4217-.1195,11.1474.4383,1.1357.9762,2.2415,1.7134,3.8951.8667-1.1157,1.4345-1.6038,1.7234-2.2215,3.407-7.322,6.7642-14.6739,10.2209-21.956,1.1457-2.371,2.8392-4.2836,5.1802-5.7182,5.23-3.1778,11.8846-.4582,13.7076,5.5289.9962,3.3273,2.2414,6.6546,3.8354,9.7427,2.5303,4.9013,3.0583,10.1512,3.5763,15.4609.1195,1.5541-.0698,3.138-.0996,4.702-.0598,3.8155,2.3809,6.4056,6.2162,6.0469,3.5663-.3287,6.8538-1.4943,8.617-5.1304,1.305-2.7096,2.879-5.2698,4.1741-7.9595,3.3571-6.9435,9.0753-10.9581,16.2478-13.0103,1.7633-.4981,3.7358-.2291,6.3059-.3387-.6774,1.4146-.8567,2.3411-1.4245,2.8591-2.4805,2.341-3.8055,4.8614-2.1916,8.3182.8567,1.8828-.4284,3.2077-1.6736,4.4231-3.935,3.8154-7.8799,7.6109-11.8149,11.4362-.7172.7173-1.3747,1.5043-2.341,2.5503,2.5403,2.9886,4.961,5.8576,7.4017,8.6868,1.0261,1.1954,2.1019,2.3211,3.1679,3.4667,6.3357,6.8538,6.1764,13.9367-.02,21.3085-3.1081,3.6859-6.1564,7.4216-9.2745,11.0777-1.5939,1.8828-3.2775,3.6958-4.971,5.489-1.0858,1.1755-2.2912,1.3648-3.8552.6774-2.8491-1.2253-5.7879-1.046-8.7566-.1295-2.2015.6874-4.5326,1.3448-6.8139,1.4046-3.2775.0897-4.194-1.7134-2.4905-4.433.9066-1.4246,1.9227-2.8093,3.1081-3.9948,4.3733-4.3234,8.8263-8.5274,13.2394-12.7711,2.8591-2.7296,5.3994-5.6086,6.5749-9.5336,1.1057-3.7556.2889-6.9833-3.1779-10.0615-2.2115,2.6897-4.4131,5.3994-6.6745,8.0492-3.4567,4.0645-6.8039,8.2485-10.4998,12.0739-3.2675,3.387-5.2997,7.3718-6.8737,11.6753-.4483,1.2253-.7671,2.4905-1.3349,3.666-.8966,1.8828-2.3012,3.0981-4.6024,2.9288-1.9625-.1195-3.925.01-5.8676-.1195-2.4705-.2092-3.1977-1.0759-3.1081-3.5465.1096-2.9288,1.8729-5.1603,3.5664-7.2423,6.5649-8.0891,13.2991-16.0387,19.9636-24.068,1.4146-1.7134,2.7595-3.4866,4.0047-5.3196.9464-1.3548,1.7135-2.8989.5479-5.0109-1.554.8368-2.9587,1.7135-4.4529,2.4009-3.3771,1.5441-5.4891.5479-6.4554-3.0085-.2889-.9962-.6076-2.0323-.5977-3.0683.0598-4.6721-.8667-9.2148-1.9425-13.7674-1.0361-4.3832-1.1955-8.9856-2.1319-13.3987-.6077-2.879-1.4644-5.8576-2.9786-8.3381-2.5403-4.1541-7.3519-3.8852-9.6929.3486-1.1257,2.0123-2.0223,4.2538-2.5204,6.5052-1.0062,4.3932-1.6338,8.886-2.4706,13.329-.259,1.3847-.767,2.7395-1.0958,4.1143-1.046,4.2836-2.1617,8.5373-3.0383,12.8409-.5181,2.5502.2988,4.8813,2.092,6.8039.7172.7571,1.6138,1.3748,2.2414,2.1817,1.2253,1.5839,2.1617,3.2874,1.1954,5.3993-.9563,2.0721-2.5801,3.407-4.8116,3.5066-4.9511.2192-9.922-.0996-14.7237-1.4245-4.3733-1.2154-5.9871-3.8652-6.0867-8.3282-.0299-2.2912-.9065-4.5526-.9763-6.8737-.2391-7.8898-2.4606-15.6501-1.7533-23.6396.2092-2.2713-1.3349-3.2675-3.5863-2.5502-1.2253.3984-2.3809,1.0559-3.5364,1.6536-.8069.4085-1.5142,1.056-2.351,1.4047-6.555,2.8391-5.4492,3.4966-11.4263-.9066-2.2016-1.5939-4.5228-3.0284-6.9236-4.3234-2.4606-1.315-3.925-3.0384-4.5725-5.8975-.6774-2.9886-2.0322-5.8875-3.3173-8.7067-1.2452-2.7794-.9763-4.2836,1.5142-5.9373,2.5303-1.7035,5.8178-1.4843,8.368.4882,1.3349,1.0161,2.6299,2.3111,4.1541,2.8491,1.325.4781,3.3472.5977,4.3633-.1196,1.5441-1.0759,2.4108-2.9686,1.8629-5.1702-1.8131-7.1626-1.554-8.0094,4.8714-11.4064,4.8913-2.5801,7.7105-6.8638,10.3205-11.4064.8468-1.4544,1.4843-3.0384,2.2315-4.5725,2.1219-4.3035,5.3097-7.3519,10.0715-8.5473.8965-.2092,1.9127-.2491,2.6299-.7272,6.7343-4.5327,14.1858-1.9028,21.3484-2.2315,1.4146-.0498,3.0085.8368,4.3135,1.6437,2.5004,1.5043,2.8292,3.2376,1.315,5.8676-1.8729,3.2376-3.8254,6.4254-5.9672,9.9918M727.4312,768.5311c.2889-.8368.5181-1.295.6077-1.7732.7372-4.5924,1.5342-9.1849,2.1219-13.7873.3287-2.5303-.9165-3.7855-3.5564-3.9947-2.4407-.1793-4.9311-.0996-7.3021-.5977-3.4667-.6874-5.2897.4084-5.23,3.9947.0399,2.2813.8468,4.5426.9763,6.8438.2391,3.6063,2.4307,5.6484,5.3993,6.9833,2.102.9365,4.3733,1.4844,6.9833,2.3311" fill="#144399" fill-rule="evenodd" stroke-width="0"/><path d="M610.9616,859.2393c2.0821-1.2353,3.5863-1.9825,4.9312-2.9488,2.7495-2.0023,5.3894-4.1142,8.099-6.1564,3.2077-2.4307,3.2974-3.2078.7571-6.2063-.7073-.8069-1.2353-1.7632-1.9525-2.7993,2.3908-1.6736,4.6821-1.6935,6.7541-1.295,2.9288.5279,5.6783.1494,8.5274-.3288,4.1741-.7272,8.378-.9364,11.8447,2.2016.8568.787,1.4545,1.9027,2.2913,2.9985-5.3396,2.7097-10.2409,5.0906-15.0226,7.6607-5.8476,3.1281-11.6156,6.4255-17.4034,9.7029-1.1257.6276-2.1817,1.4146-3.2277,2.1817-4.1143,2.9786-6.3457,6.6446-5.3097,12.0539.8767,4.5825.5081,9.3742,2.4407,13.7873,1.0261,2.3211,2.1617,4.2736,5.0806,4.7917,9.0753,1.5939,18.1207,3.4667,27.186,5.0805,1.7433.2989,3.7855.4384,5.3595-.2092,8.3182-3.3571,15.5705-.6674,22.5139,3.7258,1.7234,1.0958,3.3074,2.5801,4.5725,4.184,2.3909,3.0085,1.7633,5.0507-1.7134,6.6844-.8169.3786-1.6537.7771-2.4905,1.1357-2.6299,1.0759-4.1541,3.0284-4.7618,5.7779-.1594.7571-.2391,1.564-.5479,2.2514-1.1655,2.6797-2.8491,3.5663-5.6484,2.5502-1.7533-.6375-3.2277-.5678-4.8514.2092-5.6186,2.61-11.0279,1.9127-15.7399-1.8529-6.2062-4.971-12.0837-10.3504-18.1505-15.5007-2.3311-1.9924-4.3335-4.4331-7.2324-5.748-1.3648,1.0958-.777,2.2414-.2988,3.2475,1.3847,3.0783,1.554,6.2262,1.0559,9.5436-.2291,1.5341.0996,3.138-.0598,4.6821-.2789,2.8291-.3685,5.728-1.2053,8.4178-1.7832,5.7779-8.7964,8.5971-14.385,5.8177-2.2813-1.1556-4.4132-1.7234-7.0033-1.4345-1.554.1793-3.3571-.3885-4.7817-1.1357-4.2338-2.2414-8.1687-5.1403-13.2892-5.0905-.5479.01-1.0858-.6176-1.6536-.9065-1.3648-.6774-2.6698-1.5541-4.1143-1.9326-3.0782-.797-4.5924-2.6499-3.5863-5.6385.6675-2.0023,2.1319-3.7855,3.4668-5.489.6973-.8667,1.8529-1.5142,2.9288-1.9127,7.3618-2.6897,9.653-9.0354,11.2768-15.7298.6276-2.4805.4583-5.1304.6774-7.7006.2292-2.9288-2.0521-3.5265-4.1541-2.1418-1.3149.8468-2.5901,1.7633-3.8552,2.6698-.8468.5878-1.6437,1.305-2.5403,1.833-2.1817,1.3249-2.7694,1.2353-4.0047-.9464-1.3847-2.4905-2.7794-5.0208-3.9051-7.6507-1.0858-2.5802-.5578-3.7557,2.0024-4.9411,3.1778-1.4844,6.3955-2.9089,9.6431-4.2438,5.8775-2.4108,8.0492-5.8975,7.4415-12.0539-1.046-10.4002-2.5901-20.7706-2.9088-31.1808-.2989-9.5136-1.9326-18.8977-2.0024-28.4213-.0099-1.6238.5679-3.2874,1.1257-4.8514.5479-1.4346,1.4644-2.7595,2.1618-4.1641,2.2215-4.453,8.5572-5.0906,11.506-.9564,1.1456,1.6139,2.072,3.7756,2.082,5.6982.0498,4.981,1.2552,9.6531,2.4008,14.4349.9962,4.1441.7472,8.5672,1.4943,12.791.9962,5.5986,2.4108,11.1275,3.6759,16.6563.7571,3.2875,1.5441,6.555,2.3112,9.8324.6674,2.7396,1.3548,5.4691,2.1916,8.9658" fill="#144399" fill-rule="evenodd" stroke-width="0"/><path d="M298.0761,732.3903c1.9226,1.4345,3.0782,2.2215,4.1441,3.1081,1.325,1.0759,2.5901,2.2016,3.8354,3.3472,2.3908,2.1618,4.702,3.5266,7.9496,1.2453,1.4046-.9862,3.2974-.4882,4.7618.6475,2.2812,1.7533,4.5625,3.2974,7.5611,3.8154,2.2613.3985,2.8291,2.5403,1.5042,4.5626-1.9625,2.9088-4.1143,5.7081-5.9771,8.6768-2.1219,3.387-1.584,4.3832,2.3012,5.2997,4.8713,1.1257,9.3741,3.1779,13.5282,5.9473.797.5379,1.3947,1.4146,2.1219,2.1617-2.1418,3.5664-4.7219,5.5089-8.7266,6.2063-4.961.8467-10.1811.4782-14.8433,2.9089-.6873.3486-1.7632.0697-2.6498-.0399-2.1618-.3188-4.3235-.8667-6.4852-.9663-3.407-.1494-3.407-.01-5.7281,3.4767,2.9288,5.5089,6.3358,10.8386,11.0677,15.2616,1.0659.9564,2.1318,1.9227,3.0383,3.0285,1.066,1.2751.7771,2.61-.767,3.128-3.7955,1.2751-7.6308,2.4208-11.4961,3.4169-.9165.2491-2.0322-.3586-3.0583-.4781-2.6897-.2889-5.3894-.8568-8.0691-.7173-5.5289.259-10.8685-.1195-16.0785-2.2215-4.981-2.0023-10.1512-2.0023-15.3314-.5778-1.1058.3088-2.2912.5081-3.4468.5479-3.4468.1395-4.2737-.777-4.0246-4.2836.1594-2.341-.8169-3.8453-3.2875-4.5924-3.2077-.9464-6.4951-1.7334-9.7427-2.6798-1.2353-.3487-2.4606-.8567-3.6261-1.4245-2.3212-1.1158-3.4668-3.0085-3.5166-5.6186-.0797-3.9249-.2789-7.8101-.3287-11.7251-.0399-3.9051,4.5526-6.8339,8.0193-5.1204,5.3396,2.6698,10.6692,5.3794,15.949,8.1886,1.6836.9066,2.9188.7372,4.1242-.6774,2.62-2.9985,4.5925-6.3656,5.24-10.3305.4184-2.5701-1.1257-4.423-2.7096-6.1963-3.0683-3.4169-5.7182-7.1427-7.3021-11.4661-.9862-2.7196-2.1717-5.4691-.9862-8.5971,1.295-3.417,4.5725-5.4094,7.9595-4.2339,3.7058,1.2851,7.3121,2.7296,9.7627,6.1366.9763,1.3349,2.3908,2.3908,3.7755,3.3571,4.0247,2.8292,6.9435,2.6798,10.5397-.5877,2.899-2.63,5.6684-5.4292,8.368-8.2385.9863-1.0161,1.6637-2.3211,2.63-3.6959" fill="#144399" fill-rule="evenodd" stroke-width="0"/><path d="M195.1596,442.0456c-.767,3.407-1.4145,6.5549-2.2115,9.673-.3786,1.4843-1.4843,1.3648-2.8093,1.0261-4.3633-1.1556-93.5911-22.8526-102.2579-25.0542-2.2315-.5579-2.63-1.1357-2.112-3.2874.5978-2.5204,1.4146-4.991,2.0622-7.5014.3785-1.554,1.305-2.0521,2.8092-2.1517,5.9373-.3985,71.9937-7.0331,71.9937-7.0331,0,0-64.1238-16.4471-68.2779-17.3935.5678-3.8652,1.2751-7.2124,2.6399-10.3803.1793-.4384,1.3648-.8169,1.9526-.6675,7.5411,1.8231,98.3429,24.1576,105.1269,25.901-.3486,1.7632-1.6437,7.7005-1.8628,8.9757-.4782,2.4406-1.0161,3.0284-3.5764,3.2675-4.3832.4283-70.1905,7.4017-70.1905,7.4017,0,0,62.0915,16.0287,66.7138,17.2241" fill="#144399" fill-rule="evenodd" stroke-width="0"/><path d="M265.9529,297.598c-2.3311,2.5901-4.4529,5.0108-6.6744,7.322-1.066,1.1157-1.9825.4881-2.9587-.4782-3.2377-3.1679-70.2514-65.9478-76.7067-72.1143-1.6636-1.5939-1.7433-2.2812-.2192-3.905,1.7533-1.9127,3.6959-3.656,5.4791-5.5289,1.0958-1.1556,2.1617-1.1356,3.5165-.4782,5.3695,2.5802,66.1471,29.308,66.1471,29.308,0,0-47.7474-45.8746-50.9054-48.7536,2.4108-3.0882,4.6622-5.6484,7.4017-7.7304.3786-.3088,1.584-.0399,2.0223.3785,5.6783,5.2898,73.758,69.4046,78.7987,74.2561-1.1755,1.3648-5.2101,5.9173-6.0469,6.9036-1.6039,1.9027-2.361,2.1318-4.7219,1.0958-4.0246-1.7932-64.7425-28.0926-64.7425-28.0926,0,0,46.1735,44.5098,49.6103,47.8172" fill="#144399" fill-rule="evenodd" stroke-width="0"/><path d="M816.1052,508.5005c.1494-3.4668.2191-6.6944.4482-9.8922.1096-1.5341,1.2154-1.6238,2.5901-1.5242,4.5128.3686,96.1723,5.8178,105.0882,6.4354,2.2813.1694,2.7794.6475,2.6698,2.869-.1495,2.5901-.518,5.1703-.6874,7.7404-.1195,1.584-.9364,2.2514-2.4008,2.62-5.7879,1.4545-69.5939,19.7545-69.5939,19.7545,0,0,66.0375,4.7419,70.3012,4.9511.1096,3.8951.0199,7.322-.7472,10.6891-.1195.4682-1.2054,1.036-1.813.9862-7.7404-.4383-101.0835-6.2361-108.0668-6.7442.0399-1.7931.2491-7.8699.2491-9.1749.0298-2.4805.4582-3.1579,2.9387-3.8553,4.2239-1.1854,67.731-19.7843,67.731-19.7843,0,0-63.9355-4.712-68.7072-5.0706" fill="#144399" fill-rule="evenodd" stroke-width="0"/><path d="M905.8699,372.5553s2.2215,6.545,3.0782,9.3642c.5977,1.9824-.2291,3.1579-2.7893,3.8254-4.7319,1.295-38.6921,9.9121-38.6921,9.9121l6.286,23.8289s34.2889-8.8761,38.4231-9.952c2.4905-.6475,3.407-.3188,4.2238,2.0621.8269,2.4606,1.325,5.0208,1.8928,7.5711.2989,1.3847-.4583,2.2016-1.8031,2.5502-6.1465,1.564-98.065,25.6021-102.6475,26.937-1.4843.4284-2.2215-.1693-2.5502-1.574-.6177-2.5104-1.2851-5.0108-1.9127-7.5411-.5479-2.3211-.2491-2.9388,2.1219-3.5963,6.7541-1.8628,43.7527-11.6255,43.7527-11.6255l-6.3259-23.6496s-38.8215,9.9918-42.4377,10.988c-3.2276.8866-4.2238.3088-5.0805-2.9089-.6675-2.5004-1.2752-5.0108-2.0223-7.9496,1.8629-.6674,106.4828-28.242,106.4828-28.242" fill="#144399" fill-rule="evenodd" stroke-width="0"/><path d="M370.6705,120.9106c2.3908,7.4316,4.7319,14.6838,7.2024,22.3246,9.962-2.5701,19.356-6.2162,29.2781-9.0255,1.9127,5.9274,3.7556,11.5559,5.7181,17.6127-1.3847.6276-29.1087,10.1512-29.1087,10.1512l8.7765,27.5048s22.1054-6.9235,29.6167-9.4439c1.5939-.518,3.0782-.2789,3.5963,1.3349,1.6935,5.1702,3.1878,10.3903,4.7418,15.6103.0299.0897-.0996.2092-.3586.7173-4.6124,1.4843-31.7984,10.191-40.4553,12.9504-2.9985.9564-3.5962.6376-4.5625-2.3609-6.037-19.097-12.0639-38.194-18.1307-57.281-4.194-13.2593-13.08-40.9932-13.2195-41.6308-.7371-2.6997-.3885-3.4269,2.3311-4.3334,3.5763-1.1954,28.1324-8.8661,36.8192-11.6156,3.2277-1.0161,3.6959-.8268,4.7718,2.4407,1.315,3.9548,2.61,7.9197,3.8353,11.8945.7372,2.3709.3885,2.8092-2.0123,3.5663-9.0554,2.8492-28.2021,9.2148-28.8397,9.5834" fill="#144399" fill-rule="evenodd" stroke-width="0"/><path d="M795.8934,617.0464c1.2453-3.9449,2.2813-7.5312,3.5963-11.0079.249-.6675,1.574-1.3748,2.3809-1.315,3.4867.1395,23.3108.8767,23.3108.8767,0,0,2.3909-8.3083,3.5764-12.5321.7272-2.4706,1.2054-5.0706,2.2115-7.4216.8866-2.0721.3586-3.1878-1.4445-4.1243-3.118-1.5739-14.9827-7.571-17.7521-9.0354-2.9089-1.584-2.9288-1.833-1.9625-4.8913.5778-1.843,2.6001-8.099,3.2576-9.5136,5.7081,2.9786,93.2135,49.1321,96.7699,51.0647,2.7196,1.4644,2.7097,1.6138,1.8131,4.5127-.787,2.6001-1.9824,7.1128-1.9824,7.1128,0,0-.6874,3.1879-3.7457,3.1879-2.8192-.4782-105.2675-6.2661-110.0293-6.9136M844.6968,607.224l37.9848,2.351-33.3425-17.8219-4.6423,15.4709Z" fill="#144399" fill-rule="evenodd" stroke-width="0"/><path d="M283.5227,140.416c4.4331,5.24,46.7413,56.8825,51.4832,61.3255.2191-.1295.4283-.2889.6276-.4284-1.1755-3.656-10.6991-32.147-14.2256-42.7565-3.2576-9.7327-6.4454-19.5153-9.7029-29.2481-1.1755-3.4966-1.0361-4.0944,2.1717-5.9871,1.813-1.046,3.6759-1.9725,5.5089-2.9886,2.4407-1.3349,2.9288-1.1157,3.7756,1.574,2.7395,8.6868,5.489,17.3736,8.2086,26.0703,3.8752,12.3826,19.7843,62.4512,23.8687,75.0829,1.0161,3.0882.9464,3.2974-1.9127,4.971-2.2315,1.3249-4.5526,2.5303-6.7641,3.905-1.5142.9265-2.63.6376-3.7158-.6774-6.4155-7.7404-67.731-80.263-69.564-82.4547-1.2751-1.5441-1.1257-2.3809.6774-3.377,2.9786-1.6039,5.9772-3.1281,9.5634-5.0109" fill="#144399" fill-rule="evenodd" stroke-width="0"/><path d="M713.5971,135.5028c.7173.0897,1.1755,0,1.4545.1992,3.1479,2.0821,6.2461,4.2338,9.3941,6.3258,1.4245.9464,1.6536,2.0323,1.1755,3.686-3.6361,12.6018-10.719,39.1303-10.719,40.1763.8766-.4184,22.4043-16.9452,32.5256-24.9446,1.1755-.9364,2.2016-1.9525,3.7755-.9165,3.148,2.0821,6.296,4.1641,9.414,6.276.269.1993.3387.6774.7273,1.5142-1.1955.8368-35.6637,26.3393-51.5131,38.4231-2.5004,1.9226-4.3533,4.7917-6.1564,7.4415-6.9036,10.1313-21.448,31.6988-22.225,32.6153-2.9687-2.0521-5.8875-3.9648-8.7167-6.007-1.3349-.9564-1.036-2.092-.1693-3.3771,7.322-10.7688,14.5344-21.6373,21.9261-32.3662,1.833-2.6399,3.0284-5.4492,3.7756-8.4975,2.3709-9.683,12.5221-49.8494,15.3313-60.5485" fill="#144399" fill-rule="evenodd" stroke-width="0"/><path d="M278.2698,825.6666c-3.5165,5.4193-8.368,8.4378-14.6041,9.5734-3.7457.6675-7.4117,1.7135-11.1175,2.5802-.0697.3287-.1395.6575-.1993.9962.9863.6873,1.9127,1.5042,2.9687,2.0322,3.4767,1.7732,7.0331,3.407,10.5198,5.1702,1.3946.7073,2.7196,1.5541,3.9847,2.4606,2.3809,1.7533,2.2215,2.7196-.4582,4.0944-1.6138.8368-3.2376,1.7034-4.7518,2.6996-1.9028,1.2453-3.2078,2.7097-3.1779,5.3894.0299,3.4568-2.1418,4.5825-5.2499,3.0583-4.3235-2.1318-8.8063-4.0246-12.8808-6.5649-4.2736-2.6797-8.1787-5.9771-12.2332-9.0155-1.0559-.7571-2.1518-1.4843-3.1978-2.2813-3.9249-3.0284-4.1341-8.4477-.4383-11.8248.5679-.518,1.1955-1.1157,1.8729-1.3647,6.5848-2.3012,13.0501-5.6385,20.3123-2.6399,2.1318.8866,4.0644-.1395,6.0568-.7073,4.6722-1.3449,5.9274-1.9426,8.7765-4.6323-2.8491-2.4407-6.2063-3.5963-9.5535-4.8814-5.0308-1.9425-10.2608-1.3548-15.441-1.4245-2.351-.0299-4.692.0498-7.043-.0199-3.6859-.1196-6.1963,1.6536-7.84,4.7518-.7273,1.3747-1.2652,2.8889-1.7035,4.3733-1.4744,5.0407-4.4132,9.0952-8.3282,12.4922-1.7234,1.5142-3.7457,2.6299-6.0668,1.6836-2.7594-1.1457-4.7419-3.2576-5.5189-6.2063-.1992-.787.1295-1.7832.4483-2.61,1.8031-4.7319,2.4008-9.4937.8966-14.4846-.8468-2.8392,2.3908-6.6646,5.8277-7.0132,6.3158-.6177,11.6753-3.3074,16.5467-7.1726,1.4345-1.1356,2.7993-2.3908,4.2936-3.4169,3.3273-2.2514,6.5749-.6874,6.9136,3.2077.2889,3.0782.6674,3.4867,3.5962,4.0246,5.9572,1.1058,11.9543,2.1916,17.8916,3.417,1.5042.3187,3.0782.8866,4.2637,1.7831,4.6622,3.5764,9.1849,7.322,13.7275,11.0179.2889.2391.4084.6475.9065,1.4544" fill="#144399" fill-rule="evenodd" stroke-width="0"/><path d="M665.0129,132.565c-4.1541,9.952-26.3891,63.2781-33.6015,80.4125-1.6238,3.8653-2.2514,4.0147-6.1664,2.2614-2.2414-1.0062-4.5028-1.9525-7.1228-3.0782.7671-2.1319,23.3906-56.2848,34.01-81.4685,1.1257-2.6598.8667-3.2376-1.9027-4.3932-3.6162-1.4943-7.2423-2.9487-10.7788-4.5924-2.6698-1.2453-2.7595-1.6039-1.7334-4.1542,1.5043-3.7357,3.0484-7.4614,4.6721-11.1473,1.4146-3.1978,1.7235-3.3273,4.991-1.9625,8.5273,3.5364,33.9302,14.3352,38.1341,16.1283,3.7856,1.5839,3.7457,1.5441,2.1219,5.22-1.4544,3.3472-2.7495,6.7542-4.1641,10.1313-1.4743,3.4568-1.8031,3.5664-5.1901,2.1617-4.3135-1.8031-8.6171-3.5863-13.2693-5.5189" fill="#144399" fill-rule="evenodd" stroke-width="0"/><path d="M207.1259,602.8268c.1594,6.8637-3.7457,10.9581-8.0592,14.5344-4.3434,3.6261-17.5728,9.1849-19.0472,9.7129-2.7694.9563-2.9487.9065-4.3533-1.5043-1.056-1.7931-2.0322-3.6461-2.9687-5.5189-1.3847-2.6997-1.0858-3.1878,1.6139-4.2736,2.7793-1.1058,5.5189-2.3311,8.2185-3.6162,1.046-.4882,10.5198-4.4231,8.7167-9.8822-2.1418-6.4653-11.9742-2.63-13.08-2.3212-11.4861,3.2875-75.0221,22.514-78.0007,23.4404-3.5265,1.1058-3.5265,1.1257-4.6223-2.2414-.6376-1.9625-1.315-3.935-1.9625-5.8975-.7571-2.3012-.4782-3.0583,1.8429-3.7955,5.9473-1.8828,68.8358-21.1391,76.8551-23.3706,6.2163-1.7533,13.1498-3.1579,19.4457-2.4905,14.9628,3.2277,15.3313,16.4372,15.4011,17.2242" fill="#144399" fill-rule="evenodd" stroke-width="0"/><path d="M490.6995,374.8705c-.8866-.2889-1.6039-.7173-2.3211-.7173-40.8339-.0199-120.9874-.0199-120.9874-.0199,0,0-.0099,110.3779-.0099,119.9911,0,2.0422-1.2652,2.8193-3.1679,2.7097-4.2936-.2391-10.8983-.3786-15.182-.777-2.2115,0-2.1717-3.4568-2.1617-4.2239.1096-44.7887-.1295-89.5575-.01-134.3363,0-.6475-.0298-1.295,0-1.9525.0499-1.7633.9663-2.5802,2.7595-2.5005,1.554.0598,3.128.0399,4.702.0399,100.9042,0,201.8282-.01,302.7623-.01,4.1541,0,4.3732.2291,4.3732,4.4331v82.6639c0,.6375.0399,1.295.0299,1.9425-.0299,1.5641-.7969,2.4507-2.4008,2.4606-5.0806.0199-10.1811.0199-15.2816.0199-1.6337.01-2.3311-.9065-2.341-2.4506-.01-.777,0-1.564,0-2.361.0099-20.4916.0299-40.9932.0299-61.4948,0-4.0545-.0996-4.1541-4.1741-4.1541h-121.8241c-4.0047,0-4.1541.1594-4.1541,4.1939,0,39.2898.0099,78.5995.0099,117.8992,0,3.8852-.0398,3.925-3.915,3.935-4.1641.0099-8.3481.0099-12.5221-.01-4.0047-.01-4.0147-.0299-4.0346-4.2438v-12.1336c0-35.2352.0299-70.5103.0199-105.7556,0-1.0161-.1394-2.0422-.1992-3.1479" fill="#144399" fill-rule="evenodd" stroke-width="0"/><path d="M297.4535,490.6099c2.082,1.2153,3.8055,2.361,5.6384,3.2974,8.7964,4.3932,18.051,5.5687,27.7041,3.925,2.6698-.4583,5.3296-.9464,7.9895-1.4644,2.1617-.4085,3.2973.9065,4.5326,2.4008,3.8951,4.702,7.6806,9.5535,11.9643,13.8968,7.9197,8.0592,17.3536,14.1161,27.3155,19.376,8.637,4.5924,17.4334,8.6967,26.7975,11.6255,9.3443,2.9089,18.8878,3.7158,28.4911,2.8989,4.1641-.3387,8.358-1.9326,12.2432-3.6162,17.7122-7.6009,33.721-18.1506,49.3811-29.1883,14.2655-10.0516,28.2122-20.5515,42.1788-31.0314,6.4652-4.8514,12.6815-10.0017,18.8578-15.1919,4.5825-3.8552,9.6033-5.9771,15.7-5.8177,7.2622.1693,13.1896,7.0331,11.8945,14.634-.2092,1.1755-1.0261,2.4008-1.8828,3.2974-12.3727,12.8907-63.4374,66.9041-76.8063,80.8508-5.3993,5.6285-10.9381,11.1673-16.477,16.7161-3.6759,3.7058-8.4078,5.7082-13.1696,7.4415-7.9496,2.889-16.3375,3.5664-24.6159,2.63-8.9059-1.0062-17.4134-3.6262-25.3431-8.2784-20.1131-11.8048-40.5947-22.9721-60.6979-34.777-22.9223-13.4984-45.2868-27.8933-66.6949-43.6829-1.7732-1.2951-3.3373-2.9089-4.8315-4.5327-1.3549-1.4644-1.5641-3.1878-.1694-5.4093" fill="#144399" fill-rule="evenodd" stroke-width="0"/><path d="M511.3426,659.7969h-20.4817s-.01-32.3164.0099-46.9305c0-3.4468.2591-3.666,3.8453-3.6959,4.3036-.0199,8.5972,0,12.9107.0199,3.5962,0,3.7456.1196,3.7456,3.7358,0,12.9006-.0298,46.8707-.0298,46.8707" fill="#144399" fill-rule="evenodd" stroke-width="0"/><path d="M787.4547,254.1989c0,9.3244-7.5611,16.8755-16.8854,16.8755s-16.8954-7.5511-16.8954-16.8755c0-9.3343,7.571-16.8854,16.8954-16.8854s16.8854,7.5511,16.8854,16.8854" fill="#144399" fill-rule="evenodd" stroke-width="0"/><path d="M657.0842,579.0407h-11.4263c-4.6522,0-4.2935,5.5289-4.2935,5.5289,0,0-.0299-.0399-.0299-.0498-2.9189,72.7319-63.6068,129.5346-137.3149,129.5346-76.7864,0-139.0184-62.0527-139.0184-138.6099,0-1.3449.0099-16.6663.0099-19.5254,0-2.5004-2.1717-2.7096-2.7495-2.7295h-12.5918c-1.1954.2092-2.879,1.1854-2.879,5.2499v17.005c0,86.6785,70.2813,156.9498,157.2288,156.9498,84.3873,0,153.1742-66.2467,157.1191-149.4087-.0398-3.915-4.0545-3.9449-4.0545-3.9449" fill="#144399" fill-rule="evenodd" stroke-width="0"/><path d="M503.4238,0C225.3871,0,0,225.3881,0,503.4348s225.3871,503.405,503.4238,503.405,503.425-225.3881,503.425-503.405S781.4507,0,503.4238,0M503.4238,972.7701c-259.2187,0-469.3542-210.1364-469.3542-469.3353S244.2051,34.0697,503.4238,34.0697s469.3453,210.1364,469.3453,469.3651-210.1265,469.3353-469.3453,469.3353" fill="#144399" stroke-width="0"/><path d="M503.4238,219.1778c-156.9896,0-284.243,127.2534-284.243,284.2331s127.2534,284.2431,284.243,284.2431,284.2232-127.2633,284.2232-284.2431-127.2434-284.2331-284.2232-284.2331M503.4238,757.0809c-140.0942,0-253.66-113.5657-253.66-253.67s113.5658-253.6401,253.66-253.6401,253.6501,113.5558,253.6501,253.6401-113.5558,253.67-253.6501,253.67" fill="#144399" stroke-width="0"/><path d="M561.0066,86.2183c-3.4169-4.2737-8.4576-6.6845-15.0026-7.1726-14.9329-1.0659-23.261,8.5075-24.8051,28.4313-1.5541,20.1131,5.23,31.3501,20.1828,33.4321,9.5435,1.1456,13.7873,7.2623,12.9604,18.6587-.8268,11.4761-5.9373,16.6762-15.5405,15.9888-4.3634-.3187-7.6508-1.833-9.7727-4.5027-2.5104-3.158-3.5165-8.0692-3.0284-14.5942l.0697-.8667-10.8983-.7771-.0498.8169c-.9962,12.7313.9165,22.2649,5.7281,28.3217,3.7955,4.7817,9.4339,7.4814,16.7659,8.0094,1.1556.0797,2.2713.0996,3.3372.0598,14.6042-.4384,22.9224-11.4463,24.7354-32.7249,1.2054-21.6871-6.5549-33.2927-23.0219-34.4881-7.8899-1.4843-11.3466-7.1228-10.5696-17.2241.6973-9.1451,4.2139-13.6877,10.8087-13.8969.6375-.0199,1.305,0,2.0422.0797,3.4368.1893,6.0568,1.3747,7.8001,3.5265,2.2415,2.7594,3.148,7.2722,2.6997,13.3888l-.0498.8667,10.8186.787.0598-.8368c.8069-11.3765-.9563-19.884-5.2699-25.2833" fill="#144399" stroke-width="0"/><path d="M195.1696,561.5397c.1793,1.0659-.5479,2.072-1.6138,2.2613l-105.5355,18.3399c-1.0659.1793-2.082-.528-2.2514-1.6039l-1.3747-8.1787c-.1793-1.0659.5379-2.0821,1.6039-2.2514l105.5354-18.3498c1.0759-.1794,2.082.5379,2.2514,1.6038l1.3847,8.1788Z" fill="#144399" fill-rule="evenodd" stroke-width="0"/><path d="M190.6648,478.1187c-.1096,1.0858-1.046,1.8728-2.1219,1.7732l-106.7308-9.3144c-1.0659-.0996-1.8529-1.046-1.7633-2.1219l.7771-8.2684c.0896-1.0659,1.0559-1.8629,2.1218-1.7632l106.7209,9.3143c1.066.0997,1.8629,1.046,1.7633,2.1319l-.7671,8.2485Z" fill="#144399" fill-rule="evenodd" stroke-width="0"/><path d="M308.7194,257.848c-.8567.6475-2.082.4881-2.7395-.3686l-65.5494-84.726c-.6575-.8667-.4881-2.092.3686-2.7396l6.5948-5.0407c.8567-.6575,2.0721-.4881,2.7395.3586l65.5494,84.736c.6574.8667.4881,2.082-.3686,2.7395l-6.5948,5.0408Z" fill="#144399" fill-rule="evenodd" stroke-width="0"/><path d="M576.7574,199.3307c-1.046-.2789-1.6537-1.3548-1.3847-2.3908l27.2359-103.6138c.2689-1.046,1.3448-1.6637,2.4008-1.3748l7.9994,2.1518c1.046.2789,1.6736,1.3548,1.3947,2.3909l-27.2359,103.6138c-.2789,1.046-1.3648,1.6536-2.4108,1.3847l-7.9994-2.1618Z" fill="#144399" fill-rule="evenodd" stroke-width="0"/><path d="M813.6844,468.5851c-.0896-1.0759.7073-2.0223,1.7832-2.1318l106.6422-10.1213c1.0759-.0997,2.0322.6873,2.1318,1.7732l.7372,8.2484c.0897,1.0859-.6973,2.0323-1.7732,2.1219l-106.6621,10.1512c-1.0659.0996-2.0024-.7073-2.1119-1.7832l-.7472-8.2584Z" fill="#144399" fill-rule="evenodd" stroke-width="0"/><path d="M190.3441,534.4174c.0298,1.0659-.807,1.9724-1.8629,2.0123l-105.3462,3.9947c-1.0659.0299-1.9525-.8169-1.9824-1.9027l-.269-8.2883c-.0299-1.0759.797-1.9725,1.8629-2.0123l105.3362-3.9948c1.0759-.0199,1.9525.8269,2.0023,1.9028l.2591,8.2883Z" fill="#144399" fill-rule="evenodd" stroke-width="0"/><path d="M190.2185,533.4152c-.1394-5.8775-1.036-31.37-1.2851-38.2637-.0697-1.813-.9961-2.62-2.7096-2.5702-4.5625.1395-9.1151.279-13.6677.4981-2.2514.0997-2.5303.5579-2.3909,2.9886.1196,1.9525,1.0361,40.9136,1.0361,40.9136,10.2508-.4483,18.2502-2.4706,19.0172-2.5602v-1.0062Z" fill="#144399" fill-rule="evenodd" stroke-width="0"/><path d="M227.9941,310.3034c-6.814-5.5289-61.0366-38.7817-72.712-45.9145v-.0099c-2.0621-1.2453-2.8491-.3786-3.0383-.0797l-5.778,9.2944s66.8743,41.6707,70.9089,44.9382c2.5702,2.092,5.6484,4.2836,5.7281,8.4776.1096,5.3495-4.8614,12.801-12.1137,11.2569-4.2139-.7272-9.2845-2.8491-13.0202-5.1104-16.9552-10.2907-63.9355-38.6223-63.9355-38.6223,0,0-4.0545,6.2162-5.758,9.2347-.7272,1.3349.2291,1.7433.7372,2.3211.6674.7571,26.2795,16.4371,38.2637,23.53,10.8784,6.4354,21.8763,12.7114,32.934,18.7782,20.5813,10.5696,34.01-2.5702,36.879-8.9059,1.2951-2.8292,6.9634-16.1184-9.0952-29.1884" fill="#144399" fill-rule="evenodd" stroke-width="0"/><line x1="370.6705" y1="120.9106" x2="392.5369" y2="189.4784" fill="#144399" stroke-width="0"/><path d="M499.5068,185.3014c-4.6821-9.8922-9.404-19.7545-14.106-29.6267-2.3112-4.8316-5.4094-9.1351-9.5635-12.9107,25.7316-10.0615,22.2749-54.9598-5.1303-60.5584-4.7021-.9563-8.6868-.6475-13.4885-.3487-6.3557.3985-12.6516,1.2453-18.9973,1.7832-2.7395.2391-3.1978.4085-3.0683,3.2177.1395,3.2376,10.0018,102.9663,10.1711,104.1219.2789,1.6935,1.1855,2.9188,3.1081,2.9387,3.2277.01,6.4852.0897,9.4439-1.7632.0698-.5579.2192-1.0759.1893-1.584-.7173-7.2124-3.9648-42.8661-3.9648-42.8661,0,0,9.0055-4.3434,12.4822,3.935.7272,1.0858,15.9988,31.2804,18.4694,36.1617,1.0261,2.0024,3.1679,2.2713,3.1679,2.2713l8.5573-.5877s4.0545-1.325,2.7295-4.184M467.4096,128.0603c-1.9825.2092-11.9444,1.3448-15.1421,1.7234-.4184-2.112-2.1418-25.4328-2.5403-27.3255-.3985-1.8729.4084-2.6798,1.9724-3.0882l.0299-.01c.7571-.1693,11.7351-1.9824,18.1905-.6176,1.5939.5778,3.0682,1.4544,4.3533,2.5701,2.879,2.5104,4.8415,6.1963,5.1404,10.48.2889,3.7556-.7771,7.2622-2.6997,10.1013-2.1618,3.1978-5.4392,5.489-9.3044,6.1665" fill="#144399" stroke-width="0"/><path d="M881.529,310.3223c-.4085-.6077-.8269-1.1755-1.2951-1.7135-10.46-11.3366-37.0583-5.1702-37.0583-5.1702-14.5643,4.0446-28.0128,10.5596-40.4851,19.0372-6.3956,4.3235-12.3329,9.155-16.8257,15.5406-3.0982,4.5924-9.7926,16.6962-3.407,27.993,1.6935,2.7196,9.2945,12.0439,31.0513,8.099,2.2314-.4284,4.453-.9165,6.6545-1.564,3.7059-1.066,4.3135-1.4545,4.6522-5.3297.0698-.8866.528-5.8775.4683-7.561-.0698-1.6537-1.1158-2.1717-2.7296-1.7633-3.138.8069-13.349,4.0346-19.7246,1.564-2.9387-1.1456-5.1005-3.3073-5.5488-6.535-.4781-3.4369.1594-6.6645,2.2514-9.6531,2.6698-3.8054,5.9871-6.9036,9.7727-9.4937,11.3665-7.7404,23.4503-14.0463,36.7494-17.7521,4.2239-1.1655,8.7366-1.6138,13.08-.1693,2.3411.7869,4.4729,1.9625,5.9074,4.2338,2.0522,3.3272,2.1518,6.6047.3885,9.9918-1.8828,3.6958-4.6123,6.6047-7.83,9.1251-2.0522,1.6138-2.092,2.331-.279,3.9947,2.0422,1.823,4.194,3.5066,6.2661,5.3097,1.3448,1.1655,2.5104.9563,3.8154-.1096,1.6138-1.305,3.1778-2.6299,4.7319-3.9947,8.7864-8.4378,11.1872-17.0249,11.5757-18.6487,1.5342-7.8301-.6375-12.9804-2.1816-15.431" fill="#144399" fill-rule="evenodd" stroke-width="0"/><path d="M727.1483,516.2737c-3.2974-3.5962-7.2622-4.3433-11.8048-2.7793-4.5825,1.564-8.627,4.4828-11.3466,8.627-4.722,7.1526-11.4164,11.6355-19.0273,15.0923-5.5787,2.5303-11.3665,4.2139-17.254,5.479l.01.0199c-20.2028,5.24-40.7741,3.6461-40.7741,3.6461-7.9397-.4582-12.8708-7.84-11.4164-14.2754.787-3.4966,2.3809-6.9036,4.2338-10.0117,2.102-3.5564,4.7818-6.794,7.3918-10.0516,12.7213-15.8195,28.0228-28.3018,47.07-35.8031,9.1151-3.5663,18.4893-6.007,28.3615-6.0967.9863-.0099,2.1618-.1793,2.9288-.7172,4.1442-2.869,5.3097-9.3343.8368-14.0961-1.2352-1.315-3.5564-3.0683-6.8239-3.6859-5.7978-.8269-12.7313-1.0161-20.0832-.8069-1.7832.0597-3.5663.1394-5.3495.259-5.2898.2689-10.6792.6575-15.9789,1.1854-21.1691,2.1618-40.0867,5.7979-40.0867,5.7979-2.4606.5977-4.194,1.833-5.8576,3.5364-18.2303,18.6786-103.8031,109.3419-110.368,116.9329-5.3396,6.2162-2.351,10.5995,3.8453,12.7114,1.0759.3686,2.2912.4881,3.4369.5479,3.118.2291,6.2361.4084,9.3542.5081,6.5151.239,13.0202.6475,19.5253.5578,6.4653-.0797,12.9605-.6874,19.4457-1.0659,1.036-.0598,2.082-.1992,3.0981-.3287,4.7618-.6177,9.5136-1.1756,14.2555-1.8928,5.1204-.7671,10.3106-1.2951,15.3115-2.5702,10.1711-2.6299,20.2724-5.5189,30.314-8.627,11.1873-3.4169,22.3745-6.8837,33.3724-10.8884,13.4187-4.9311,26.7378-10.2209,39.9074-15.8294,8.8462-3.7756,17.4732-8.2086,25.1339-14.1957,3.5763-2.7894,6.9833-5.8576,9.3244-9.9121,2.1816-3.8254,1.544-8.5075-.9863-11.267" fill="#144399" stroke-width="0"/><path d="M661.4336,538.5316c0,1.046-.8567,1.9028-1.9027,1.9028h-16.1881c-1.046,0-1.9027-.8568-1.9027-1.9028v-35.5042c0-1.0659.8567-1.9226,1.9027-1.9226h16.1881c1.046,0,1.9027.8567,1.9027,1.9226v35.5042Z" fill="#144399" fill-rule="evenodd" stroke-width="0"/><path d="M394.9327,342.3877h3.3671c4.9013,0,6.8439-1.0659,6.8439-5.6285v-41.1626c0-4.5625-1.9426-5.7181-6.8439-5.7181h-3.3671v-2.6399c11.8547-.8667,18.0012-3.1978,21.4679-6.9833h3.6859v56.5039c0,4.5626,1.9526,5.6285,6.7542,5.6285h2.6598v2.6299h-34.5678v-2.6299Z" fill="#144399" stroke-width="0"/><path d="M442.7389,335.4004c0-4.0844,3.1679-7.2822,7.4714-7.2822,3.7756,0,7.1626,2.3311,7.1626,6.8937,0,2.5303-1.1356,4.174-3.387,5.8177-.8069.5878-1.2154,1.3748-.5081,1.8629.9265.5678,2.351,1.056,4.6124,1.056,11.1474,0,15.4509-12.044,16.1582-27.3753-2.5602,2.6199-6.1365,4.8414-12.4823,4.8414-11.1473,0-21.5774-7.9496-21.5774-19.5054,0-12.811,12.1734-21.0694,24.6557-21.0694,15.2317,0,25.2634,11.3665,25.2634,29.806,0,19.3261-13.608,35.823-32.0176,35.823-9.3144,0-15.3513-4.6522-15.3513-10.8684M474.2484,301.0318c0-10.2906-2.2514-18.1506-9.404-18.1506-7.063,0-8.4876,8.1489-8.4876,18.4395,0,9.9022,1.2154,16.6962,8.1688,16.6962,6.8538,0,9.7228-8.1489,9.7228-16.9851" fill="#144399" stroke-width="0"/><path d="M551.3117,326.6618v3.397h-9.2048v6.794c0,4.463,1.9426,5.5389,6.555,5.5389h1.8329v2.6199h-32.2267v-2.6199h2.6598c4.6024,0,6.545-1.0759,6.545-5.5389v-6.794h-28.4313v-2.7096l34.9862-46.3229h8.0791v45.6355h9.2048ZM527.4729,295.3017l-23.6297,31.3601h23.6297v-31.3601Z" fill="#144399" stroke-width="0"/><path d="M561.9969,316.6561c0-19.3062,13.6079-35.823,32.0175-35.823,9.3144,0,15.3314,4.6621,15.3314,10.8684,0,4.0844-3.1679,7.2921-7.4714,7.2921-3.7756,0-7.1527-2.3311-7.1527-6.9036,0-2.5104,1.1257-4.174,3.3771-5.8177.8169-.5778,1.2253-1.3748.518-1.833-.9264-.5977-2.3609-1.0859-4.6024-1.0859-11.1473,0-15.4509,12.044-16.1582,27.3753,2.5602-2.61,6.1266-4.8514,12.4624-4.8514,11.1573,0,21.5974,7.9695,21.5974,19.5253,0,12.821-12.1735,21.0595-24.6557,21.0595-15.2318,0-25.2634-11.3566-25.2634-29.806M595.7478,325.7812c0-9.8922-1.2253-16.6962-8.1787-16.6962-6.8638,0-9.7129,8.1688-9.7129,16.9851,0,10.2906,2.2514,18.1705,9.4041,18.1705,7.053,0,8.4875-8.1688,8.4875-18.4594" fill="#144399" stroke-width="0"/></g></svg>